<?xml version="1.0" encoding="utf-8"?>
<!-- Generator: Adobe Illustrator 25.0.0, SVG Export Plug-In . SVG Version: 6.00 Build 0)  -->
<svg version="1.1" id="Capa_1" xmlns:serif="http://www.serif.com/"
	 xmlns="http://www.w3.org/2000/svg" xmlns:xlink="http://www.w3.org/1999/xlink" x="0px" y="0px" viewBox="0 0 608 614.6"
	 style="enable-background:new 0 0 608 614.6;" xml:space="preserve">
<style type="text/css">
	.st0{display:none;fill:none;}
	.st1{fill-rule:evenodd;clip-rule:evenodd;fill:#F3F3F3;}
	.st2{fill-rule:evenodd;clip-rule:evenodd;fill:#00A82D;}
</style>
<rect id="Artboard1" x="-80" y="-76.7" class="st0" width="768" height="768"/>
<g>
	<g>
		<path class="st1" d="M48.6,468.8C17.9,421.3,0,364.7,0,304C0,136.2,136.2,0,304,0s304,136.2,304,304S471.8,608,304,608
			c-56.9,0-110.1-15.6-155.6-42.8L0,614.6L48.6,468.8L48.6,468.8z"/>
		<path class="st2" d="M105.4,445c-28.4-39.8-45-88.5-45-141C60.4,169.6,169.6,60.4,304,60.4S547.6,169.6,547.6,304
			S438.4,547.6,304,547.6c-50.9,0-98.1-15.6-137.2-42.3l-91.6,30.5L105.4,445z"/>
	</g>
	<path class="st1" d="M230.8,367.2c-36-44-60-97.8-67.5-156.2c-2-16.3,3.4-32.6,14.8-44.4c11.4-11.8,27.5-17.9,43.8-16.5l1.6,0.2
		c0,0,18,4.8,27.8,7.5c3.9,1.1,7,4,8.3,7.8c4.4,13.1,14.8,43.9,19.8,58.4c1.6,4.7,0.1,9.9-3.6,13.1c-7.5,6.3-19.8,16.6-27.5,23.1
		c-4.1,3.5-5.4,9.3-3.2,14.2c8.9,19.5,20.3,37.6,33.8,54.1c13.9,16.1,29.9,30.4,47.5,42.5c4.5,3,10.4,2.7,14.5-0.8
		c7.7-6.5,20-16.8,27.5-23.1c3.8-3.2,9.2-3.7,13.6-1.4c13.4,7.3,42,22.8,54.2,29.4c3.6,1.9,5.9,5.5,6.3,9.5
		c0.9,10.1,2.7,28.6,2.7,28.6l-0.1,1.6c-1.4,16.3-10.1,31.2-23.6,40.4c-13.6,9.2-30.6,11.8-46.2,7c-56.7-17.4-106-50.6-143.3-94
		L230.8,367.2L230.8,367.2z"/>
</g>
</svg>
